<svg width="310" height="171" viewBox="0 0 310 171" fill="none" xmlns="http://www.w3.org/2000/svg">
<g clip-path="url(#clip0_1_2)">
<rect width="310" height="171" fill="white"/>
<path d="M113.765 87.8535V68.1548C113.765 66.3653 115.177 64.9137 116.916 64.9137C118.657 64.9137 120.067 66.3653 120.067 68.1548V74.3962L128.031 65.7783C128.541 65.2255 129.25 64.9137 129.992 64.9137C132.37 64.9137 133.589 67.8431 131.947 69.6117L126.55 75.4207L133.673 86.2263C135.037 88.2937 133.594 91.0895 131.164 91.0895C130.15 91.0895 129.204 90.568 128.643 89.7008L122.206 79.7807L120.069 82.0865V87.8535C120.069 89.643 118.657 91.0947 116.918 91.0947C115.177 91.0921 113.765 89.643 113.765 87.8535Z" fill="#002248"/>
<path d="M152.431 88.8599C150.639 90.7387 148.294 91.6793 145.395 91.6793C142.496 91.6793 140.146 90.7387 138.341 88.8599C136.536 86.9813 135.633 84.6126 135.633 81.7566C135.633 78.9006 136.536 76.5346 138.341 74.6533C140.146 72.7746 142.496 71.8339 145.395 71.8339C148.291 71.8339 150.637 72.7746 152.431 74.6533C154.224 76.532 155.121 78.9006 155.121 81.7566C155.121 84.6126 154.226 86.9813 152.431 88.8599ZM142.512 85.8939C143.177 86.9184 144.125 87.432 145.362 87.432C146.596 87.432 147.552 86.9184 148.23 85.8939C148.906 84.8694 149.245 83.4912 149.245 81.7566C149.245 80.0247 148.906 78.6387 148.23 77.601C147.552 76.5634 146.596 76.0446 145.362 76.0446C144.125 76.0446 143.177 76.5581 142.512 77.5826C141.846 78.6072 141.515 79.9985 141.515 81.7566C141.515 83.4912 141.846 84.8694 142.512 85.8939Z" fill="#002248"/>
<path d="M157.081 88.1077V75.2032C157.081 73.6259 158.326 72.3472 159.86 72.3472C161.395 72.3472 162.639 73.6259 162.639 75.2032V75.2766H162.746C163.98 73.128 165.642 72.0538 167.733 72.0538C168.363 72.0538 168.872 72.5804 168.872 73.2276V77.3256H168.73C166.925 77.0583 165.5 77.3806 164.454 78.2951C163.409 79.2095 162.886 80.6689 162.886 82.6708V88.1077C162.886 89.7559 161.586 91.0921 159.983 91.0921C158.379 91.0921 157.081 89.7559 157.081 88.1077Z" fill="#002248"/>
<path d="M179.274 91.6429C176.329 91.6429 173.971 90.7101 172.204 88.842C170.435 86.9737 169.55 84.5893 169.55 81.6835C169.55 78.8537 170.422 76.4982 172.169 74.6169C173.915 72.7382 176.164 71.7975 178.92 71.7975C181.413 71.7975 183.491 72.5784 185.153 74.14C186.716 75.6073 187.707 77.5803 188.128 80.059C188.411 81.7307 187.144 83.2556 185.494 83.2556H175.251C175.44 84.55 175.881 85.5561 176.569 86.2767C177.257 86.9973 178.183 87.3562 179.348 87.3562C180.444 87.3562 181.28 87.0209 181.854 86.3526C182.313 85.8156 182.96 85.4907 183.654 85.4907C185.938 85.4907 186.907 88.5249 185.038 89.8768C185.018 89.8926 184.997 89.9057 184.977 89.9214C183.381 91.069 181.482 91.6429 179.274 91.6429ZM175.284 79.7079H182.478C182.384 78.5865 182.022 77.6956 181.392 77.0353C180.763 76.375 179.972 76.0475 179.024 76.0475C176.956 76.0449 175.71 77.2659 175.284 79.7079Z" fill="#002248"/>
<path d="M190.315 88.1083V74.9103C190.315 73.4954 191.432 72.3478 192.809 72.3478H193.415C194.792 72.3478 195.909 73.4954 195.909 74.9103H196.016C197.415 72.8351 199.292 71.7975 201.645 71.7975C203.615 71.7975 205.166 72.45 206.292 73.7574C207.419 75.0623 207.985 76.7785 207.985 78.9009V88.1083C207.985 89.7563 206.685 91.0926 205.081 91.0926C203.478 91.0926 202.178 89.7563 202.178 88.1083V80.1088C202.178 79.0843 201.933 78.272 201.448 77.6746C200.962 77.0772 200.255 76.7785 199.33 76.7785C198.379 76.7785 197.606 77.1453 197.015 77.8764C196.421 78.6074 196.125 79.5611 196.125 80.7325V88.1083C196.125 89.7563 194.825 91.0926 193.222 91.0926C191.615 91.0926 190.315 89.7563 190.315 88.1083Z" fill="#002248"/>
<path d="M218.384 91.6794C215.725 91.6794 213.605 91.0872 212.026 89.9028C211.796 89.7299 211.582 89.5491 211.383 89.3579C209.77 87.804 210.868 85.0135 213.078 85.0135H213.309C214.191 85.0135 214.963 85.5481 215.386 86.3446C215.903 87.3114 216.89 87.7962 218.349 87.7962C219.229 87.7962 219.922 87.6311 220.431 87.301C220.941 86.9709 221.199 86.5149 221.199 85.928C221.199 85.7341 221.175 85.5612 221.127 85.4144C221.079 85.2678 220.997 85.1341 220.878 85.0109C220.757 84.8904 220.645 84.7804 220.538 84.6809C220.431 84.5838 220.27 84.4921 220.056 84.4056C219.842 84.3192 219.658 84.2537 219.506 84.2039C219.35 84.1568 219.125 84.0991 218.828 84.0389C218.53 83.9787 218.299 83.9288 218.132 83.8921C217.966 83.8555 217.704 83.8056 217.349 83.7454C216.992 83.6851 216.732 83.6406 216.566 83.617C215.807 83.4964 215.164 83.3681 214.645 83.2318C214.121 83.0982 213.546 82.8833 212.915 82.5898C212.286 82.2964 211.776 81.9611 211.383 81.5837C210.991 81.2064 210.665 80.6928 210.404 80.0457C210.142 79.3984 210.012 78.6491 210.012 77.7949C210.012 75.89 210.761 74.4149 212.255 73.3642C213.752 72.3161 215.629 71.7894 217.884 71.7894C220.427 71.7894 222.397 72.3213 223.796 73.3825C223.819 73.4009 223.844 73.4192 223.867 73.4375C225.662 74.8367 224.658 77.7949 222.404 77.7949H222.379C221.555 77.7949 220.828 77.3311 220.36 76.6368C219.894 75.9451 219.054 75.5992 217.846 75.5992C217.089 75.5992 216.477 75.7433 216.016 76.0368C215.657 76.2621 215.404 76.6473 215.337 77.0744C215.299 77.318 215.317 77.5355 215.389 77.7216C215.437 77.8447 215.514 77.9548 215.621 78.0517C215.728 78.1487 215.835 78.2351 215.942 78.3085C216.049 78.3818 216.196 78.4553 216.388 78.5286C216.577 78.6019 216.751 78.6623 216.906 78.712C217.061 78.7618 217.273 78.8089 217.548 78.8588C217.82 78.9085 218.048 78.9505 218.226 78.9871C218.404 79.0238 218.646 79.0736 218.955 79.1339C219.263 79.1941 219.514 79.2387 219.702 79.2623C220.51 79.4089 221.174 79.5426 221.696 79.6658C222.218 79.7888 222.83 80.0011 223.528 80.3077C224.23 80.6142 224.78 80.9654 225.186 81.3689C225.589 81.7724 225.941 82.32 226.237 83.017C226.533 83.7139 226.682 84.5236 226.682 85.4512C226.682 87.453 225.918 88.991 224.385 90.0653C222.855 91.1422 220.855 91.6794 218.384 91.6794Z" fill="#002248"/>
<path d="M228.571 67.3322C228.571 65.9985 229.625 64.9164 230.922 64.9164H232.025C233.324 64.9164 234.376 65.9985 234.376 67.3322C234.376 68.6659 233.324 69.748 232.025 69.748H230.922C229.625 69.748 228.571 68.6659 228.571 67.3322ZM228.571 88.6762V74.7631C228.571 73.4294 229.625 72.3472 230.922 72.3472H232.025C233.324 72.3472 234.376 73.4294 234.376 74.7631V88.6762C234.376 90.01 233.324 91.0921 232.025 91.0921H230.922C229.625 91.0921 228.571 90.01 228.571 88.6762Z" fill="#002248"/>
<path d="M236.908 88.0163C236.908 86.3184 238.246 84.9402 239.901 84.9402H240.008C241.66 84.9402 243.001 86.3184 243.001 88.0163C243.001 89.7142 241.66 91.0924 240.008 91.0924H239.901C238.246 91.0924 236.908 89.7168 236.908 88.0163Z" fill="#002248"/>
<path d="M78.0504 72.2452L78.053 68.1525C78.053 68.1525 77.8337 64.686 82.1422 64.6388C85.4717 64.6021 90.8637 64.6519 93.1377 64.6755C94.1983 64.686 95.2461 64.9585 96.1281 65.5035C97.51 66.355 98.1651 67.2197 96.3984 70.5762L96.3322 70.6679L86.4073 87.4397C85.4284 89.0958 83.9727 90.4845 82.1753 91.3753C80.2149 92.3474 78.0785 92.5911 78.0785 89.0144C78.0785 88.7105 78.053 80.132 78.053 79.2936L78.0504 72.2452Z" fill="#0080FF"/>
<path d="M95.6336 91.6975L93.2831 91.6896C93.2831 91.6896 91.2843 91.797 91.2894 89.4388C91.2945 87.623 91.3634 84.6885 91.3965 83.4359C91.4117 82.8412 91.58 82.2543 91.9115 81.7643C92.4163 81.0253 93.3238 80.4148 94.7465 81.8875L100.709 87.8877C100.709 87.8877 102.935 90.2878 101.056 91.4983C100.646 91.7629 100.159 91.8756 99.6744 91.8546L95.6336 91.6975Z" fill="#0000FF"/>
<path d="M139.008 102.24H138.192L138.96 100.424H139.48L139.008 102.24ZM140.304 102.24H139.488L140.256 100.424H140.776L140.304 102.24ZM145.087 100.424V101.016H143.567V106H142.839V101.016H141.311V100.424H145.087ZM145.711 103.792C145.711 103.344 145.802 102.952 145.983 102.616C146.165 102.275 146.413 102.011 146.727 101.824C147.047 101.637 147.402 101.544 147.791 101.544C148.175 101.544 148.509 101.627 148.791 101.792C149.074 101.957 149.285 102.165 149.423 102.416V101.616H150.159V106H149.423V105.184C149.279 105.44 149.063 105.653 148.775 105.824C148.493 105.989 148.162 106.072 147.783 106.072C147.394 106.072 147.042 105.976 146.727 105.784C146.413 105.592 146.165 105.323 145.983 104.976C145.802 104.629 145.711 104.235 145.711 103.792ZM149.423 103.8C149.423 103.469 149.357 103.181 149.223 102.936C149.09 102.691 148.909 102.504 148.679 102.376C148.455 102.243 148.207 102.176 147.935 102.176C147.663 102.176 147.415 102.24 147.191 102.368C146.967 102.496 146.789 102.683 146.655 102.928C146.522 103.173 146.455 103.461 146.455 103.792C146.455 104.128 146.522 104.421 146.655 104.672C146.789 104.917 146.967 105.107 147.191 105.24C147.415 105.368 147.663 105.432 147.935 105.432C148.207 105.432 148.455 105.368 148.679 105.24C148.909 105.107 149.09 104.917 149.223 104.672C149.357 104.421 149.423 104.131 149.423 103.8ZM152.117 102.424C152.261 102.173 152.475 101.965 152.757 101.8C153.045 101.629 153.379 101.544 153.757 101.544C154.147 101.544 154.499 101.637 154.813 101.824C155.133 102.011 155.384 102.275 155.565 102.616C155.747 102.952 155.837 103.344 155.837 103.792C155.837 104.235 155.747 104.629 155.565 104.976C155.384 105.323 155.133 105.592 154.813 105.784C154.499 105.976 154.147 106.072 153.757 106.072C153.384 106.072 153.053 105.989 152.765 105.824C152.483 105.653 152.267 105.443 152.117 105.192V108.08H151.389V101.616H152.117V102.424ZM155.093 103.792C155.093 103.461 155.027 103.173 154.893 102.928C154.76 102.683 154.579 102.496 154.349 102.368C154.125 102.24 153.877 102.176 153.605 102.176C153.339 102.176 153.091 102.243 152.861 102.376C152.637 102.504 152.456 102.693 152.317 102.944C152.184 103.189 152.117 103.475 152.117 103.8C152.117 104.131 152.184 104.421 152.317 104.672C152.456 104.917 152.637 105.107 152.861 105.24C153.091 105.368 153.339 105.432 153.605 105.432C153.877 105.432 154.125 105.368 154.349 105.24C154.579 105.107 154.76 104.917 154.893 104.672C155.027 104.421 155.093 104.128 155.093 103.792ZM158.657 103.792C158.657 103.344 158.747 102.952 158.929 102.616C159.11 102.275 159.358 102.011 159.673 101.824C159.993 101.637 160.347 101.544 160.737 101.544C161.121 101.544 161.454 101.627 161.737 101.792C162.019 101.957 162.23 102.165 162.369 102.416V101.616H163.105V106H162.369V105.184C162.225 105.44 162.009 105.653 161.721 105.824C161.438 105.989 161.107 106.072 160.729 106.072C160.339 106.072 159.987 105.976 159.673 105.784C159.358 105.592 159.11 105.323 158.929 104.976C158.747 104.629 158.657 104.235 158.657 103.792ZM162.369 103.8C162.369 103.469 162.302 103.181 162.169 102.936C162.035 102.691 161.854 102.504 161.625 102.376C161.401 102.243 161.153 102.176 160.881 102.176C160.609 102.176 160.361 102.24 160.137 102.368C159.913 102.496 159.734 102.683 159.601 102.928C159.467 103.173 159.401 103.461 159.401 103.792C159.401 104.128 159.467 104.421 159.601 104.672C159.734 104.917 159.913 105.107 160.137 105.24C160.361 105.368 160.609 105.432 160.881 105.432C161.153 105.432 161.401 105.368 161.625 105.24C161.854 105.107 162.035 104.917 162.169 104.672C162.302 104.421 162.369 104.131 162.369 103.8ZM166.471 101.536C167.004 101.536 167.436 101.699 167.767 102.024C168.097 102.344 168.263 102.808 168.263 103.416V106H167.543V103.52C167.543 103.083 167.433 102.749 167.215 102.52C166.996 102.285 166.697 102.168 166.319 102.168C165.935 102.168 165.628 102.288 165.399 102.528C165.175 102.768 165.063 103.117 165.063 103.576V106H164.335V101.616H165.063V102.24C165.207 102.016 165.401 101.843 165.647 101.72C165.897 101.597 166.172 101.536 166.471 101.536ZM169.18 103.792C169.18 103.344 169.271 102.952 169.452 102.616C169.633 102.275 169.881 102.011 170.196 101.824C170.516 101.637 170.873 101.544 171.268 101.544C171.609 101.544 171.927 101.624 172.22 101.784C172.513 101.939 172.737 102.144 172.892 102.4V100.08H173.628V106H172.892V105.176C172.748 105.437 172.535 105.653 172.252 105.824C171.969 105.989 171.639 106.072 171.26 106.072C170.871 106.072 170.516 105.976 170.196 105.784C169.881 105.592 169.633 105.323 169.452 104.976C169.271 104.629 169.18 104.235 169.18 103.792ZM172.892 103.8C172.892 103.469 172.825 103.181 172.692 102.936C172.559 102.691 172.377 102.504 172.148 102.376C171.924 102.243 171.676 102.176 171.404 102.176C171.132 102.176 170.884 102.24 170.66 102.368C170.436 102.496 170.257 102.683 170.124 102.928C169.991 103.173 169.924 103.461 169.924 103.792C169.924 104.128 169.991 104.421 170.124 104.672C170.257 104.917 170.436 105.107 170.66 105.24C170.884 105.368 171.132 105.432 171.404 105.432C171.676 105.432 171.924 105.368 172.148 105.24C172.377 105.107 172.559 104.917 172.692 104.672C172.825 104.421 172.892 104.131 172.892 103.8ZM180.719 102.056C180.719 102.52 180.559 102.907 180.239 103.216C179.924 103.52 179.442 103.672 178.791 103.672H177.719V106H176.991V100.424H178.791C179.42 100.424 179.898 100.576 180.223 100.88C180.554 101.184 180.719 101.576 180.719 102.056ZM178.791 103.072C179.196 103.072 179.495 102.984 179.687 102.808C179.879 102.632 179.975 102.381 179.975 102.056C179.975 101.368 179.58 101.024 178.791 101.024H177.719V103.072H178.791ZM181.352 103.792C181.352 103.344 181.442 102.952 181.624 102.616C181.805 102.275 182.053 102.011 182.368 101.824C182.688 101.637 183.042 101.544 183.432 101.544C183.816 101.544 184.149 101.627 184.432 101.792C184.714 101.957 184.925 102.165 185.064 102.416V101.616H185.8V106H185.064V105.184C184.92 105.44 184.704 105.653 184.416 105.824C184.133 105.989 183.802 106.072 183.424 106.072C183.034 106.072 182.682 105.976 182.368 105.784C182.053 105.592 181.805 105.323 181.624 104.976C181.442 104.629 181.352 104.235 181.352 103.792ZM185.064 103.8C185.064 103.469 184.997 103.181 184.864 102.936C184.73 102.691 184.549 102.504 184.32 102.376C184.096 102.243 183.848 102.176 183.576 102.176C183.304 102.176 183.056 102.24 182.832 102.368C182.608 102.496 182.429 102.683 182.296 102.928C182.162 103.173 182.096 103.461 182.096 103.792C182.096 104.128 182.162 104.421 182.296 104.672C182.429 104.917 182.608 105.107 182.832 105.24C183.056 105.368 183.304 105.432 183.576 105.432C183.848 105.432 184.096 105.368 184.32 105.24C184.549 105.107 184.73 104.917 184.864 104.672C184.997 104.421 185.064 104.131 185.064 103.8ZM190.806 101.616L188.166 108.064H187.414L188.278 105.952L186.51 101.616H187.318L188.694 105.168L190.054 101.616H190.806ZM191.65 100.424H192.458L191.69 102.24H191.178L191.65 100.424ZM192.946 100.424H193.754L192.986 102.24H192.466L192.946 100.424Z" fill="black"/>
<g filter="url(#filter0_b_1_2)">
<path d="M63.9642 143.157C69.6118 162.022 52.5345 183.798 25.8209 191.795C-0.892635 199.792 -27.1265 190.983 -32.7741 172.118C-38.4217 153.254 -21.3444 131.478 5.36918 123.481C32.0827 115.483 58.3166 124.293 63.9642 143.157Z" fill="#0000FF"/>
<path d="M63.9642 143.157C69.6118 162.022 52.5345 183.798 25.8209 191.795C-0.892635 199.792 -27.1265 190.983 -32.7741 172.118C-38.4217 153.254 -21.3444 131.478 5.36918 123.481C32.0827 115.483 58.3166 124.293 63.9642 143.157Z" fill="black" fill-opacity="0.2"/>
</g>
<ellipse cx="296.303" cy="16.2557" rx="34" ry="45" transform="rotate(56.2963 296.303 16.2557)" fill="black"/>
<rect width="36.1472" height="19.4925" rx="4" transform="matrix(0.452224 -0.891904 0.891592 0.45284 250.139 132.76)" fill="black"/>
<path d="M264.155 134.362L263.574 134.058C263.574 134.058 263.066 133.834 263.368 133.192C263.602 132.696 263.995 131.901 264.162 131.566C264.239 131.409 264.353 131.274 264.493 131.184C264.713 131.042 264.883 131.009 265.233 131.52L265.241 131.536L266.911 134.249C267.075 134.517 267.168 134.835 267.166 135.168C267.163 135.53 267.045 135.865 266.537 135.6C266.494 135.577 265.275 134.946 265.156 134.884L264.155 134.362Z" fill="#0080FF"/>
<path d="M268.241 133.1L268.032 133.528C268.032 133.528 267.875 133.902 267.454 133.681C267.13 133.511 266.612 133.225 266.391 133.102C266.286 133.044 266.196 132.958 266.138 132.852C266.05 132.691 266.021 132.469 266.41 132.347L268.008 131.819C268.008 131.819 268.633 131.637 268.684 132.093C268.695 132.192 268.672 132.291 268.625 132.378L268.241 133.1Z" fill="#0000FF"/>
<path d="M268.208 130.086L267.442 130.23L267.996 130.508L267.843 130.813L266.588 130.183L266.742 129.878L267.292 130.154L266.952 129.459L267.132 129.1L267.503 129.895L268.396 129.713L268.208 130.086ZM268.711 129.121C268.662 129.218 268.597 129.296 268.516 129.354C268.435 129.41 268.345 129.442 268.245 129.448C268.145 129.453 268.043 129.43 267.94 129.378C267.837 129.326 267.759 129.258 267.704 129.174C267.648 129.089 267.619 128.997 267.617 128.898C267.615 128.798 267.638 128.699 267.687 128.602C267.736 128.504 267.801 128.426 267.883 128.369C267.964 128.311 268.055 128.279 268.156 128.273C268.257 128.267 268.358 128.29 268.46 128.341C268.563 128.392 268.642 128.461 268.697 128.547C268.752 128.631 268.78 128.724 268.781 128.825C268.784 128.924 268.76 129.023 268.711 129.121ZM268.447 128.988C268.476 128.929 268.479 128.869 268.457 128.807C268.435 128.744 268.384 128.692 268.304 128.652C268.224 128.612 268.153 128.601 268.09 128.62C268.027 128.638 267.981 128.676 267.952 128.734C267.922 128.794 267.918 128.854 267.941 128.915C267.963 128.975 268.015 129.026 268.096 129.067C268.176 129.107 268.247 129.118 268.309 129.102C268.371 129.084 268.417 129.046 268.447 128.988ZM268.363 127.706C268.326 127.643 268.306 127.577 268.302 127.508C268.296 127.438 268.31 127.37 268.343 127.305L268.667 127.467L268.624 127.551C268.586 127.627 268.574 127.693 268.588 127.748C268.601 127.802 268.649 127.85 268.731 127.891L269.194 128.124L269.04 128.429L268.043 127.928L268.197 127.623L268.363 127.706ZM269.382 126.466C269.411 126.481 269.439 126.497 269.469 126.517L269.121 127.208C269.186 127.235 269.243 127.239 269.294 127.221C269.344 127.201 269.382 127.166 269.408 127.115C269.446 127.039 269.44 126.969 269.391 126.907L269.554 126.582C269.612 126.632 269.655 126.692 269.686 126.762C269.716 126.831 269.73 126.906 269.727 126.987C269.724 127.067 269.702 127.148 269.661 127.229C269.612 127.327 269.548 127.403 269.468 127.458C269.388 127.514 269.298 127.543 269.199 127.547C269.1 127.551 268.999 127.527 268.895 127.475C268.792 127.423 268.712 127.357 268.655 127.276C268.599 127.194 268.57 127.105 268.566 127.008C268.563 126.91 268.586 126.812 268.636 126.714C268.684 126.617 268.747 126.541 268.826 126.487C268.904 126.432 268.991 126.403 269.087 126.399C269.184 126.393 269.282 126.416 269.382 126.466ZM269.144 126.739C269.092 126.712 269.041 126.709 268.992 126.729C268.943 126.75 268.906 126.787 268.879 126.84C268.853 126.891 268.846 126.942 268.858 126.993C268.87 127.043 268.902 127.085 268.952 127.121L269.144 126.739ZM269.275 125.45C269.334 125.333 269.418 125.259 269.529 125.228C269.64 125.196 269.761 125.213 269.893 125.279L270.476 125.572L270.323 125.876L269.782 125.604C269.715 125.57 269.655 125.561 269.6 125.577C269.546 125.593 269.504 125.63 269.475 125.689C269.446 125.747 269.441 125.803 269.46 125.856C269.48 125.909 269.523 125.952 269.59 125.986L270.131 126.258L269.978 126.564L268.98 126.063L269.134 125.757L269.266 125.824C269.238 125.77 269.224 125.711 269.225 125.646C269.226 125.581 269.242 125.515 269.275 125.45ZM270.801 124.961C270.757 125.048 270.703 125.118 270.639 125.171C270.575 125.224 270.508 125.257 270.437 125.271C270.365 125.284 270.295 125.276 270.229 125.249L270.38 124.947C270.417 124.96 270.453 124.958 270.489 124.941C270.524 124.923 270.553 124.893 270.574 124.851C270.593 124.813 270.6 124.78 270.596 124.753C270.592 124.724 270.577 124.703 270.553 124.691C270.525 124.677 270.497 124.681 270.468 124.704C270.439 124.727 270.4 124.768 270.349 124.826C270.297 124.889 270.25 124.94 270.208 124.979C270.165 125.017 270.115 125.043 270.058 125.058C270 125.072 269.937 125.062 269.87 125.028C269.812 124.999 269.768 124.958 269.737 124.903C269.706 124.847 269.692 124.782 269.695 124.707C269.699 124.632 269.722 124.552 269.764 124.467C269.827 124.342 269.907 124.259 270.005 124.219C270.104 124.177 270.207 124.177 270.315 124.218L270.173 124.5C270.136 124.487 270.101 124.489 270.067 124.505C270.034 124.52 270.008 124.548 269.987 124.59C269.969 124.626 269.962 124.657 269.967 124.683C269.97 124.709 269.984 124.727 270.008 124.739C270.036 124.754 270.065 124.75 270.095 124.727C270.124 124.703 270.163 124.663 270.209 124.606C270.265 124.541 270.315 124.491 270.357 124.454C270.398 124.416 270.449 124.391 270.508 124.377C270.566 124.362 270.63 124.371 270.7 124.404C270.758 124.434 270.802 124.477 270.832 124.533C270.861 124.588 270.873 124.653 270.868 124.728C270.864 124.802 270.841 124.88 270.801 124.961ZM270.06 123.656C270.033 123.71 269.995 123.746 269.947 123.765C269.898 123.782 269.85 123.779 269.804 123.756C269.756 123.732 269.725 123.695 269.711 123.647C269.696 123.596 269.702 123.544 269.729 123.49C269.755 123.438 269.793 123.403 269.842 123.386C269.89 123.367 269.938 123.369 269.986 123.393C270.032 123.416 270.063 123.453 270.078 123.504C270.092 123.553 270.086 123.604 270.06 123.656ZM270.24 123.556L271.237 124.057L271.083 124.363L270.086 123.862L270.24 123.556ZM271.434 123.7C271.407 123.754 271.37 123.79 271.321 123.809C271.272 123.826 271.225 123.823 271.178 123.8C271.131 123.776 271.099 123.739 271.084 123.689C271.069 123.639 271.075 123.587 271.102 123.533C271.128 123.481 271.166 123.446 271.215 123.429C271.264 123.41 271.313 123.413 271.36 123.437C271.407 123.46 271.438 123.497 271.452 123.548C271.467 123.597 271.46 123.648 271.434 123.7Z" fill="white"/>
<rect width="36.1472" height="19.4925" rx="4" transform="matrix(0.7198 -0.694182 0.693685 0.720279 16.2319 36.58)" fill="black"/>
<path d="M26.2822 43.6091L25.8294 43.1244C25.8294 43.1244 25.4206 42.7395 25.9086 42.2361C26.2858 41.847 26.9086 41.2299 27.1716 40.9699C27.2942 40.8486 27.4443 40.7598 27.6056 40.7223C27.8581 40.6634 28.0288 40.6901 28.1981 41.2914L28.2007 41.3099L28.921 44.4415C28.9922 44.7506 28.9793 45.0831 28.8721 45.3962C28.7553 45.7378 28.5377 46.0135 28.1417 45.5903C28.1081 45.5543 27.1555 44.5421 27.0627 44.4429L26.2822 43.6091Z" fill="#0080FF"/>
<path d="M30.5408 43.8093L30.2085 44.1423C30.2085 44.1423 29.9419 44.4425 29.614 44.0904C29.3616 43.8192 28.9623 43.3722 28.7924 43.1808C28.7116 43.09 28.6535 42.9787 28.6319 42.8585C28.6001 42.6767 28.6428 42.4567 29.0485 42.4738L30.7249 42.5199C30.7249 42.5199 31.373 42.5611 31.277 43.0086C31.256 43.1064 31.2031 43.1924 31.132 43.2582L30.5408 43.8093Z" fill="#0000FF"/>
<path d="M31.0665 41.2601L30.2959 41.1444L30.7279 41.5891L30.4827 41.8274L29.5043 40.8204L29.7495 40.5821L30.1788 41.0239L30.0852 40.256L30.3735 39.9758L30.4628 40.8484L31.3663 40.9688L31.0665 41.2601ZM31.8583 40.513C31.7799 40.5892 31.6929 40.6413 31.5972 40.6691C31.5026 40.696 31.4069 40.6961 31.3101 40.6692C31.2143 40.6414 31.126 40.586 31.0452 40.5028C30.9653 40.4205 30.9133 40.3307 30.8893 40.2332C30.8643 40.1348 30.8671 40.0382 30.8977 39.9434C30.9283 39.8486 30.9828 39.7631 31.0612 39.6869C31.1396 39.6107 31.2266 39.5587 31.3223 39.5308C31.4179 39.503 31.5145 39.503 31.6122 39.5308C31.7089 39.5576 31.7973 39.6122 31.8772 39.6944C31.9571 39.7766 32.009 39.8674 32.0331 39.9668C32.0571 40.0643 32.0534 40.1608 32.0218 40.2566C31.9912 40.3514 31.9367 40.4369 31.8583 40.513ZM31.652 40.3008C31.6989 40.2552 31.7219 40.1995 31.7209 40.1334C31.7209 40.0665 31.6898 40.001 31.6276 39.9369C31.5653 39.8728 31.5012 39.8394 31.4352 39.8366C31.3702 39.8328 31.3143 39.8537 31.2675 39.8992C31.2196 39.9457 31.1967 40.0014 31.1986 40.0665C31.1995 40.1307 31.2316 40.1952 31.2948 40.2603C31.357 40.3243 31.4202 40.3587 31.4842 40.3634C31.5493 40.3672 31.6052 40.3463 31.652 40.3008ZM31.9933 39.0628C31.9793 38.991 31.9817 38.9217 32.0006 38.855C32.0185 38.7874 32.0538 38.728 32.1064 38.6769L32.3586 38.9366L32.2912 39.0021C32.23 39.0615 32.1971 39.1195 32.1925 39.176C32.187 39.2316 32.2163 39.2923 32.2804 39.3583L32.6414 39.7298L32.3961 39.9682L31.6184 39.1678L31.8637 38.9294L31.9933 39.0628ZM33.3628 38.2258C33.3851 38.2488 33.4069 38.2741 33.4282 38.3017L32.8731 38.8411C32.9252 38.8871 32.9781 38.91 33.0319 38.9098C33.0857 38.9078 33.1331 38.8868 33.1742 38.8468C33.2354 38.7874 33.2529 38.7202 33.2266 38.6453L33.4877 38.3917C33.5254 38.4573 33.547 38.5283 33.5525 38.6048C33.559 38.6803 33.5475 38.7555 33.5182 38.8306C33.4888 38.9056 33.4416 38.9747 33.3766 39.0378C33.2981 39.114 33.2121 39.1651 33.1184 39.1911C33.0246 39.2171 32.9304 39.2158 32.8355 39.1871C32.7407 39.1584 32.6529 39.1024 32.5721 39.0192C32.4912 38.936 32.4373 38.8471 32.4104 38.7524C32.3844 38.6568 32.3858 38.5625 32.4145 38.4696C32.4432 38.3766 32.4972 38.2916 32.5766 38.2145C32.654 38.1392 32.7387 38.0886 32.8305 38.0626C32.9223 38.0365 33.0143 38.0374 33.1063 38.0651C33.1992 38.0919 33.2847 38.1455 33.3628 38.2258ZM33.049 38.4052C33.0082 38.3631 32.9613 38.3436 32.9085 38.3466C32.8556 38.3496 32.8077 38.372 32.7646 38.4138C32.7235 38.4538 32.7002 38.4996 32.6948 38.5514C32.6903 38.6023 32.706 38.6529 32.7421 38.7034L33.049 38.4052ZM33.5952 37.2303C33.6889 37.1393 33.7932 37.0974 33.9082 37.1047C34.0231 37.1101 34.1322 37.1659 34.2353 37.2721L34.6897 37.7397L34.4458 37.9766L34.0235 37.542C33.9715 37.4884 33.9172 37.4603 33.8607 37.4576C33.8041 37.4549 33.7524 37.4763 33.7056 37.5218C33.6587 37.5674 33.6358 37.6184 33.6369 37.675C33.638 37.7316 33.6645 37.7867 33.7166 37.8402L34.1389 38.2749L33.8936 38.5132L33.1159 37.7128L33.3612 37.4745L33.4643 37.5806C33.4548 37.5211 33.4613 37.4608 33.4839 37.3998C33.5055 37.3379 33.5426 37.2814 33.5952 37.2303ZM35.1969 37.2692C35.1271 37.337 35.0533 37.3854 34.9756 37.4145C34.8978 37.4435 34.8232 37.4528 34.7517 37.4424C34.6793 37.431 34.616 37.4013 34.562 37.3534L34.8044 37.1178C34.8343 37.1428 34.869 37.1527 34.9087 37.1476C34.9484 37.1425 34.9849 37.1237 35.0184 37.0912C35.049 37.0615 35.0669 37.033 35.072 37.0057C35.0771 36.9765 35.0704 36.9524 35.0518 36.9333C35.0295 36.9103 35.0013 36.9052 34.9671 36.9179C34.9321 36.9297 34.8813 36.9549 34.8147 36.9935C34.7443 37.0359 34.6831 37.0685 34.6309 37.0913C34.5777 37.1132 34.522 37.1218 34.4636 37.1172C34.4043 37.1116 34.3481 37.0816 34.2952 37.0271C34.2506 36.9812 34.2226 36.9275 34.2112 36.866C34.1999 36.8027 34.2079 36.7363 34.2353 36.6669C34.2636 36.5966 34.3118 36.5285 34.3797 36.4625C34.4801 36.365 34.5831 36.3132 34.6888 36.3072C34.7955 36.3002 34.893 36.3337 34.9816 36.4075L34.7549 36.6277C34.7242 36.6037 34.6903 36.5938 34.6535 36.598C34.6176 36.6013 34.583 36.6191 34.5495 36.6517C34.5208 36.6795 34.5044 36.7066 34.5002 36.733C34.4952 36.7584 34.5019 36.7806 34.5205 36.7998C34.5428 36.8227 34.5715 36.8283 34.6065 36.8166C34.6425 36.8039 34.6919 36.7782 34.7547 36.7395C34.8289 36.6972 34.892 36.6655 34.9442 36.6446C34.9954 36.6227 35.0512 36.615 35.1114 36.6216C35.1717 36.6262 35.2293 36.6558 35.2841 36.7103C35.3296 36.7572 35.3571 36.8123 35.3666 36.8756C35.3761 36.937 35.3662 37.0024 35.3369 37.0717C35.3086 37.1402 35.2619 37.206 35.1969 37.2692ZM34.9248 35.7934C34.8818 35.8352 34.8343 35.8572 34.7824 35.8593C34.7305 35.8595 34.6865 35.8409 34.6503 35.8036C34.6131 35.7654 34.5958 35.7208 34.5984 35.6699C34.6011 35.6172 34.6239 35.5699 34.6669 35.5281C34.709 35.4872 34.756 35.4666 34.8079 35.4664C34.8597 35.4644 34.9043 35.4824 34.9414 35.5207C34.9777 35.558 34.9945 35.603 34.9918 35.6558C34.9892 35.7067 34.9669 35.7525 34.9248 35.7934ZM35.1275 35.7582L35.9053 36.5586L35.66 36.7969L34.8823 35.9965L35.1275 35.7582ZM36.2089 36.2858C36.1659 36.3276 36.1184 36.3496 36.0665 36.3517C36.0147 36.3519 35.9706 36.3333 35.9344 36.296C35.8972 36.2578 35.8795 36.2127 35.8812 36.1609C35.8838 36.1081 35.9066 36.0608 35.9497 36.019C35.9917 35.9781 36.0387 35.9576 36.0906 35.9574C36.1434 35.9563 36.1884 35.9748 36.2256 36.0131C36.2618 36.0504 36.2786 36.0954 36.2759 36.1482C36.2733 36.1991 36.251 36.2449 36.2089 36.2858Z" fill="white"/>
<rect width="36.1472" height="19.4925" rx="4" transform="matrix(0.840148 0.542358 -0.542937 0.839773 187.708 9.8214)" fill="black"/>
<path d="M182.796 23.0588L183.146 22.4903C183.146 22.4903 183.414 21.989 183.997 22.3677C184.448 22.6603 185.169 23.1493 185.472 23.3559C185.614 23.4522 185.731 23.5837 185.803 23.7383C185.916 23.9802 185.93 24.1589 185.405 24.4674L185.388 24.4742L182.618 25.9174C182.344 26.06 182.029 26.1228 181.711 26.0859C181.365 26.0457 181.057 25.8885 181.363 25.3915C181.389 25.3493 182.12 24.155 182.192 24.0385L182.796 23.0588Z" fill="#0080FF"/>
<path d="M183.58 27.4112L183.192 27.1512C183.192 27.1512 182.85 26.9501 183.105 26.5381C183.301 26.2209 183.629 25.7151 183.77 25.4996C183.837 25.3972 183.928 25.313 184.035 25.2638C184.199 25.19 184.415 25.1831 184.491 25.5972L184.83 27.3031C184.83 27.3031 184.94 27.9679 184.498 27.9729C184.402 27.974 184.309 27.9402 184.231 27.8832L183.58 27.4112Z" fill="#0000FF"/>
<path d="M185.929 26.6807L185.866 25.9041L185.532 26.4262L185.244 26.2418L186.001 25.0594L186.289 25.2438L185.957 25.7626L186.683 25.4962L187.021 25.7129L186.192 25.999L186.281 26.9061L185.929 26.6807ZM186.837 27.2811C186.745 27.2222 186.675 27.1493 186.626 27.0626C186.578 26.9766 186.556 26.8834 186.56 26.7831C186.565 26.6835 186.599 26.5848 186.662 26.4872C186.724 26.3906 186.799 26.3195 186.889 26.2738C186.979 26.227 187.073 26.2077 187.173 26.2158C187.272 26.224 187.368 26.2575 187.46 26.3165C187.552 26.3755 187.622 26.4483 187.671 26.5351C187.72 26.6218 187.742 26.7159 187.737 26.8173C187.733 26.9176 187.7 27.0161 187.639 27.1126C187.577 27.2092 187.5 27.2805 187.409 27.3266C187.32 27.3723 187.225 27.3907 187.124 27.3818C187.025 27.3737 186.929 27.3401 186.837 27.2811ZM186.997 27.0319C187.052 27.0671 187.111 27.0767 187.176 27.0607C187.241 27.0455 187.297 27.0002 187.346 26.925C187.394 26.8498 187.412 26.7797 187.399 26.7148C187.388 26.6507 187.355 26.601 187.3 26.5658C187.244 26.5298 187.184 26.5202 187.121 26.5369C187.059 26.5525 187.004 26.5984 186.955 26.6748C186.907 26.75 186.888 26.8194 186.898 26.8828C186.909 26.9469 186.942 26.9966 186.997 27.0319ZM188.28 27.0816C188.347 27.0515 188.415 27.0381 188.484 27.0412C188.554 27.0433 188.62 27.064 188.682 27.1036L188.486 27.4084L188.407 27.3578C188.335 27.3117 188.271 27.293 188.215 27.3014C188.16 27.3087 188.108 27.3511 188.058 27.4286L187.779 27.8648L187.491 27.6804L188.092 26.7406L188.38 26.925L188.28 27.0816ZM189.408 28.2239C189.39 28.2508 189.371 28.2778 189.349 28.3048L188.697 27.8875C188.664 27.9488 188.654 28.0055 188.666 28.0578C188.68 28.1097 188.712 28.1511 188.76 28.182C188.832 28.228 188.901 28.2297 188.968 28.1871L189.275 28.3833C189.219 28.435 189.155 28.4723 189.082 28.4951C189.01 28.5186 188.934 28.5246 188.854 28.5132C188.775 28.5017 188.696 28.4715 188.62 28.4226C188.528 28.3637 188.459 28.2915 188.412 28.2062C188.365 28.1209 188.345 28.0288 188.351 27.9299C188.358 27.8311 188.392 27.7328 188.455 27.6351C188.517 27.5374 188.591 27.4646 188.678 27.4168C188.765 27.3697 188.857 27.3495 188.954 27.3562C189.051 27.3629 189.146 27.3961 189.239 27.4558C189.33 27.514 189.399 27.5849 189.445 27.6684C189.491 27.7518 189.511 27.8415 189.505 27.9374C189.501 28.0341 189.468 28.1295 189.408 28.2239ZM189.161 27.9593C189.193 27.9099 189.201 27.8598 189.186 27.8091C189.171 27.7583 189.139 27.7168 189.088 27.6844C189.04 27.6535 188.99 27.6413 188.938 27.6478C188.888 27.655 188.842 27.6819 188.801 27.7286L189.161 27.9593ZM190.43 28.2229C190.54 28.2934 190.604 28.3854 190.624 28.499C190.645 28.6121 190.615 28.731 190.535 28.8557L190.184 29.4048L189.897 29.2214L190.224 28.7111C190.264 28.6482 190.279 28.5889 190.269 28.5333C190.259 28.4776 190.226 28.4322 190.171 28.3969C190.116 28.3617 190.061 28.3511 190.006 28.365C189.952 28.379 189.904 28.4174 189.864 28.4803L189.537 28.9906L189.249 28.8062L189.851 27.8664L190.139 28.0508L190.059 28.1754C190.115 28.1526 190.175 28.1452 190.239 28.1532C190.305 28.1602 190.368 28.1834 190.43 28.2229ZM190.758 29.7912C190.676 29.7387 190.612 29.6779 190.566 29.6089C190.52 29.5398 190.493 29.4693 190.487 29.3973C190.482 29.3242 190.496 29.2558 190.531 29.1923L190.815 29.3746C190.798 29.4093 190.796 29.4454 190.81 29.4829C190.824 29.5203 190.851 29.5516 190.89 29.5768C190.926 29.5998 190.958 29.6107 190.986 29.6094C191.015 29.6078 191.037 29.5957 191.051 29.5733C191.069 29.5463 191.067 29.5177 191.047 29.4874C191.028 29.4559 190.992 29.4122 190.939 29.3562C190.881 29.2974 190.836 29.2451 190.802 29.1995C190.768 29.1528 190.747 29.1005 190.738 29.0426C190.73 28.9835 190.747 28.922 190.787 28.858C190.822 28.8041 190.868 28.7646 190.925 28.7395C190.984 28.714 191.051 28.7067 191.124 28.7175C191.199 28.7291 191.277 28.7604 191.356 28.8114C191.474 28.8869 191.548 28.9754 191.578 29.077C191.609 29.1792 191.599 29.2819 191.547 29.3849L191.281 29.2145C191.298 29.1791 191.299 29.1439 191.287 29.109C191.276 29.0748 191.25 29.0451 191.211 29.02C191.177 28.9984 191.147 28.9886 191.121 28.9906C191.095 28.9914 191.075 29.0031 191.06 29.0255C191.043 29.0525 191.044 29.0817 191.064 29.1131C191.084 29.1453 191.12 29.1875 191.172 29.2398C191.23 29.3024 191.276 29.3566 191.308 29.4026C191.341 29.4475 191.361 29.5 191.369 29.5602C191.378 29.6199 191.362 29.6827 191.322 29.7486C191.286 29.8036 191.239 29.8429 191.18 29.8666C191.122 29.8899 191.056 29.8952 190.982 29.8825C190.909 29.8705 190.834 29.8401 190.758 29.7912ZM192.132 29.1895C192.082 29.1571 192.05 29.1159 192.036 29.0659C192.024 29.0154 192.032 28.9683 192.06 28.9245C192.088 28.8796 192.128 28.8526 192.178 28.8435C192.23 28.8341 192.281 28.8455 192.332 28.8779C192.381 28.9095 192.412 28.9505 192.424 29.001C192.438 29.051 192.43 29.0985 192.402 29.1434C192.374 29.1872 192.334 29.2138 192.282 29.2233C192.231 29.2324 192.182 29.2211 192.132 29.1895ZM192.213 29.3788L191.611 30.3187L191.323 30.1343L191.925 29.1944L192.213 29.3788ZM191.946 30.5521C191.895 30.5197 191.863 30.4785 191.849 30.4285C191.837 30.378 191.845 30.3309 191.873 30.2871C191.902 30.2422 191.942 30.2146 191.993 30.2045C192.045 30.195 192.096 30.2064 192.147 30.2388C192.196 30.2704 192.227 30.3115 192.239 30.3619C192.252 30.4131 192.244 30.4611 192.215 30.506C192.187 30.5498 192.147 30.5765 192.095 30.5859C192.045 30.595 191.995 30.5837 191.946 30.5521Z" fill="white"/>
<rect width="36.1472" height="19.4925" rx="4" transform="matrix(0.968805 -0.247826 0.247157 0.968975 91.2561 144.957)" fill="black"/>
<path d="M97.3513 155.904L97.1882 155.25C97.1882 155.25 97.0159 154.706 97.6797 154.518C98.1927 154.374 99.0278 154.157 99.3801 154.066C99.5443 154.023 99.7171 154.023 99.8752 154.073C100.123 154.152 100.258 154.263 100.12 154.872L100.113 154.89L99.2494 157.982C99.1643 158.287 98.9949 158.57 98.7527 158.787C98.4887 159.024 98.1683 159.152 98.0255 158.581C98.0133 158.532 97.6667 157.163 97.6332 157.029L97.3513 155.904Z" fill="#0080FF"/>
<path d="M100.958 158.264L100.511 158.383C100.511 158.383 100.137 158.507 100.019 158.032C99.9285 157.667 99.7941 157.073 99.7374 156.82C99.7104 156.7 99.7128 156.573 99.7512 156.457C99.81 156.283 99.9519 156.114 100.296 156.337L101.732 157.237C101.732 157.237 102.276 157.606 101.979 157.945C101.915 158.02 101.828 158.067 101.735 158.088L100.958 158.264Z" fill="#0000FF"/>
<path d="M102.411 156.399L101.798 155.917L101.954 156.517L101.623 156.603L101.27 155.244L101.601 155.158L101.756 155.755L102.054 155.041L102.443 154.94L102.089 155.742L102.815 156.293L102.411 156.399ZM103.468 156.14C103.363 156.168 103.261 156.17 103.164 156.147C103.069 156.124 102.985 156.076 102.915 156.005C102.845 155.934 102.796 155.842 102.767 155.73C102.738 155.619 102.737 155.515 102.764 155.418C102.791 155.32 102.841 155.238 102.915 155.17C102.988 155.103 103.078 155.056 103.184 155.028C103.289 155.001 103.391 154.999 103.488 155.022C103.585 155.045 103.669 155.092 103.74 155.165C103.811 155.236 103.86 155.327 103.889 155.438C103.918 155.549 103.918 155.654 103.89 155.752C103.863 155.848 103.812 155.931 103.737 155.998C103.664 156.065 103.574 156.113 103.468 156.14ZM103.394 155.854C103.457 155.837 103.505 155.8 103.536 155.742C103.57 155.684 103.575 155.612 103.552 155.525C103.53 155.439 103.491 155.378 103.435 155.343C103.38 155.308 103.321 155.298 103.258 155.315C103.193 155.332 103.146 155.369 103.115 155.426C103.085 155.482 103.081 155.554 103.103 155.642C103.126 155.729 103.164 155.79 103.217 155.825C103.272 155.861 103.331 155.87 103.394 155.854ZM104.302 154.946C104.326 154.877 104.362 154.818 104.411 154.769C104.46 154.719 104.52 154.685 104.591 154.667L104.682 155.017L104.591 155.041C104.509 155.062 104.451 155.096 104.42 155.143C104.387 155.189 104.383 155.256 104.406 155.345L104.536 155.846L104.205 155.932L103.925 154.852L104.256 154.766L104.302 154.946ZM105.907 154.895C105.915 154.926 105.921 154.959 105.926 154.994L105.177 155.188C105.199 155.254 105.234 155.3 105.281 155.326C105.329 155.351 105.38 155.356 105.436 155.342C105.518 155.321 105.567 155.271 105.581 155.193L105.933 155.101C105.934 155.177 105.917 155.249 105.884 155.319C105.852 155.387 105.805 155.447 105.743 155.498C105.68 155.549 105.605 155.585 105.517 155.608C105.411 155.636 105.311 155.637 105.217 155.614C105.123 155.59 105.041 155.542 104.973 155.47C104.905 155.399 104.856 155.307 104.827 155.194C104.798 155.082 104.795 154.978 104.818 154.883C104.843 154.787 104.891 154.705 104.962 154.639C105.032 154.572 105.121 154.525 105.229 154.497C105.333 154.47 105.432 154.468 105.524 154.49C105.617 154.513 105.697 154.559 105.763 154.629C105.83 154.698 105.878 154.787 105.907 154.895ZM105.545 154.896C105.53 154.839 105.499 154.799 105.452 154.776C105.404 154.752 105.352 154.748 105.294 154.763C105.238 154.778 105.195 154.806 105.165 154.848C105.136 154.89 105.124 154.942 105.131 155.004L105.545 154.896ZM106.6 154.145C106.727 154.112 106.838 154.127 106.935 154.19C107.032 154.252 107.099 154.354 107.136 154.497L107.3 155.128L106.971 155.214L106.819 154.627C106.8 154.555 106.767 154.504 106.719 154.473C106.671 154.443 106.616 154.436 106.552 154.453C106.489 154.469 106.444 154.502 106.417 154.552C106.39 154.602 106.386 154.663 106.405 154.735L106.557 155.321L106.226 155.407L105.945 154.327L106.276 154.241L106.314 154.385C106.335 154.328 106.37 154.279 106.42 154.237C106.469 154.194 106.53 154.163 106.6 154.145ZM107.974 154.97C107.88 154.994 107.791 155 107.71 154.987C107.628 154.974 107.558 154.945 107.501 154.901C107.444 154.855 107.403 154.798 107.38 154.729L107.707 154.644C107.721 154.681 107.746 154.707 107.783 154.722C107.82 154.737 107.861 154.739 107.907 154.727C107.948 154.716 107.977 154.7 107.995 154.679C108.014 154.656 108.02 154.632 108.014 154.606C108.006 154.575 107.984 154.557 107.948 154.551C107.911 154.544 107.855 154.541 107.778 154.541C107.696 154.543 107.626 154.542 107.57 154.536C107.513 154.528 107.46 154.508 107.411 154.475C107.363 154.441 107.329 154.387 107.309 154.314C107.293 154.252 107.296 154.191 107.316 154.132C107.337 154.072 107.377 154.018 107.435 153.971C107.495 153.924 107.57 153.889 107.662 153.865C107.797 153.83 107.913 153.836 108.007 153.883C108.104 153.929 108.172 154.006 108.212 154.114L107.906 154.194C107.892 154.158 107.867 154.132 107.833 154.118C107.8 154.103 107.761 154.101 107.716 154.113C107.677 154.123 107.65 154.139 107.633 154.16C107.616 154.179 107.611 154.202 107.618 154.228C107.626 154.259 107.648 154.278 107.684 154.285C107.722 154.291 107.777 154.294 107.851 154.291C107.936 154.291 108.007 154.295 108.063 154.302C108.118 154.308 108.17 154.329 108.219 154.365C108.27 154.399 108.305 154.453 108.326 154.527C108.342 154.59 108.339 154.652 108.316 154.712C108.294 154.77 108.253 154.822 108.193 154.867C108.135 154.913 108.062 154.947 107.974 154.97ZM108.466 153.553C108.408 153.568 108.356 153.563 108.31 153.539C108.265 153.514 108.236 153.476 108.223 153.426C108.209 153.374 108.216 153.327 108.244 153.284C108.272 153.239 108.315 153.209 108.373 153.194C108.43 153.18 108.481 153.185 108.526 153.21C108.572 153.234 108.602 153.272 108.616 153.324C108.629 153.374 108.621 153.421 108.593 153.466C108.565 153.509 108.523 153.538 108.466 153.553ZM108.66 153.622L108.941 154.702L108.61 154.788L108.329 153.708L108.66 153.622ZM109.34 154.615C109.281 154.63 109.229 154.626 109.183 154.602C109.138 154.577 109.109 154.539 109.096 154.488C109.082 154.437 109.089 154.389 109.116 154.345C109.145 154.3 109.188 154.27 109.246 154.255C109.303 154.24 109.354 154.246 109.399 154.271C109.445 154.296 109.475 154.335 109.489 154.386C109.502 154.437 109.494 154.484 109.466 154.529C109.438 154.572 109.396 154.6 109.34 154.615Z" fill="white"/>
</g>
<defs>
<filter id="filter0_b_1_2" x="-37.8533" y="116.528" width="106.897" height="82.2189" filterUnits="userSpaceOnUse" color-interpolation-filters="sRGB">
<feFlood flood-opacity="0" result="BackgroundImageFix"/>
<feGaussianBlur in="BackgroundImageFix" stdDeviation="2"/>
<feComposite in2="SourceAlpha" operator="in" result="effect1_backgroundBlur_1_2"/>
<feBlend mode="normal" in="SourceGraphic" in2="effect1_backgroundBlur_1_2" result="shape"/>
</filter>
<clipPath id="clip0_1_2">
<rect width="310" height="171" fill="white"/>
</clipPath>
</defs>
</svg>
